<svg xmlns="http://www.w3.org/2000/svg" width="192" height="192" viewBox="0 0 192 192" version="1.1">
	<path d="M 81.660 6.048 C 62.547 9.255, 43.219 19.528, 30.289 33.350 C 22.481 41.697, 18.877 46.972, 13.969 57.241 C 7.454 70.868, 5.681 79.162, 5.681 96 C 5.681 113.506, 7.495 121.472, 14.904 136.500 C 26.299 159.614, 48.113 177.361, 73.500 184.173 C 84.987 187.255, 107.093 187.243, 118.500 184.149 C 157.428 173.591, 184.482 140.594, 186.672 101 C 188.142 74.414, 179.150 51.150, 160 32 C 145.681 17.681, 129.280 9.173, 110 6.064 C 102.558 4.863, 88.763 4.855, 81.660 6.048 M 93.357 32.954 C 90.418 34.192, 88 37.896, 88 41.162 C 88 43.623, 86.868 44.465, 76.008 50.078 C 63.315 56.639, 60.992 58.392, 62.714 60.114 C 63.419 60.819, 67.904 59.058, 76.977 54.512 C 89.112 48.431, 90.353 48.010, 91.934 49.440 C 93.899 51.219, 99.204 51.497, 102.055 49.970 C 104.932 48.431, 107.229 43.319, 106.512 40.053 C 105.301 34.540, 98.414 30.824, 93.357 32.954 M 93.066 38.876 C 91.517 41.770, 91.747 43.461, 93.960 45.464 C 98.063 49.177, 104.246 43.810, 101.296 39.095 C 99.742 36.611, 94.355 36.467, 93.066 38.876 M 119 53.728 C 119 55.346, 119.876 55.848, 123.591 56.357 C 132.917 57.636, 143.091 64.458, 148.556 73.097 C 151.308 77.447, 154 86.142, 154 90.682 C 154 93.333, 154.402 94, 156 94 C 158.513 94, 158.671 89.998, 156.489 81.620 C 152.466 66.174, 139.271 54.507, 123.360 52.326 C 119.467 51.792, 119 51.943, 119 53.728 M 46.388 55.980 C 39.903 58.600, 37.851 68.147, 42.687 73.195 C 44.165 74.738, 45.984 76, 46.729 76 C 47.820 76, 48.058 79.236, 47.951 92.609 C 47.870 102.582, 48.218 109.618, 48.821 110.221 C 51.376 112.776, 52 109.485, 52 93.467 L 52 77.051 54.983 75.509 C 58.425 73.729, 61 69.349, 61 65.272 C 61 58.444, 52.954 53.327, 46.388 55.980 M 45.557 62.223 C 43.462 65.214, 43.597 67.597, 46 70 C 49.908 73.908, 56 71.365, 56 65.826 C 56 60.459, 48.584 57.900, 45.557 62.223 M 119 64 C 119 65.405, 119.670 66.003, 121.250 66.010 C 125.170 66.027, 133.365 70.537, 137.194 74.783 C 140.786 78.768, 144 86.748, 144 91.682 C 144 93.384, 144.569 94, 146.139 94 C 148.119 94, 148.234 93.626, 147.687 89.001 C 146.410 78.222, 140.560 69.935, 130.778 65.047 C 123.514 61.417, 119 61.016, 119 64 M 118.408 73.576 C 118.575 74.709, 120.230 75.910, 122.811 76.770 C 127.867 78.456, 131.684 82.791, 133.243 88.619 C 134.075 91.729, 134.935 93, 136.207 93 C 138.797 93, 138.493 89.381, 135.377 83.129 C 132.452 77.260, 127.388 73.262, 121.711 72.341 C 118.660 71.845, 118.181 72.025, 118.408 73.576 M 92.365 74.992 C 87.945 75.991, 83.714 79.259, 81.487 83.395 C 80.221 85.746, 78.625 87.143, 76.732 87.559 C 72.697 88.445, 67.229 94.263, 66.430 98.521 C 65.031 105.978, 69.092 113.959, 75.239 115.831 C 77.033 116.377, 89.161 117.106, 102.191 117.450 C 127.872 118.129, 131.007 117.684, 134.369 112.883 C 137.938 107.788, 135.237 99.181, 129.369 96.950 C 127.575 96.268, 127 95.291, 127 92.925 C 127 90.704, 126.016 88.816, 123.600 86.400 C 120.758 83.558, 119.474 83, 115.774 83 C 112.300 83, 110.828 82.442, 108.924 80.405 C 104.545 75.717, 98.255 73.661, 92.365 74.992 M 44.299 115.503 C 41.398 117.535, 39.666 122.991, 40.895 126.225 C 43.075 131.957, 50.181 134.663, 54.715 131.487 C 56.753 130.059, 57.530 130.399, 68.447 137.487 C 80.469 145.292, 83.373 146.418, 82.820 143.060 C 82.619 141.841, 78.227 138.391, 71 133.775 C 61.527 127.725, 59.554 126.049, 59.804 124.269 C 60.192 121.507, 57.549 116.364, 55.055 115.030 C 52.252 113.529, 46.773 113.770, 44.299 115.503 M 46.881 119.895 C 44.869 121.525, 44.680 122.191, 45.539 124.645 C 47.327 129.759, 55 128.776, 55 123.434 C 55 121.408, 51.794 118, 49.888 118 C 49.522 118, 48.168 118.853, 46.881 119.895 M 114.776 136.509 C 103.162 143.805, 103.025 143.859, 100.018 142.359 C 93.658 139.186, 86.545 143.834, 86.545 151.163 C 86.545 154.352, 87.137 155.721, 89.328 157.606 C 95.519 162.931, 104.963 159.138, 105.035 151.298 C 105.070 147.529, 105.159 147.446, 116.785 140.425 C 124.936 135.502, 128.500 132.790, 128.500 131.508 C 128.500 130.495, 128.050 129.549, 127.500 129.405 C 126.950 129.262, 121.224 132.458, 114.776 136.509 M 92.200 147.200 C 89.465 149.935, 92.204 156, 96.174 156 C 98.098 156, 101 152.839, 101 150.743 C 101 146.921, 94.925 144.475, 92.200 147.200" stroke="none" fill="black" fill-rule="evenodd"/>
</svg>